<?xml version="1.0" encoding="UTF-8" standalone="no"?>
<!-- Created with Inkscape (http://www.inkscape.org/) -->

<svg
   xmlns:dc="http://purl.org/dc/elements/1.1/"
   xmlns:cc="http://creativecommons.org/ns#"
   xmlns:rdf="http://www.w3.org/1999/02/22-rdf-syntax-ns#"
   xmlns:svg="http://www.w3.org/2000/svg"
   xmlns="http://www.w3.org/2000/svg"
   xmlns:sodipodi="http://sodipodi.sourceforge.net/DTD/sodipodi-0.dtd"
   xmlns:inkscape="http://www.inkscape.org/namespaces/inkscape"
   width="170"
   height="100"
   viewBox="0 0 170 100"
   id="svg4293"
   version="1.1"
   inkscape:version="0.91 r13725"
   sodipodi:docname="logo.svg">
  <defs
     id="defs4295" />
  <sodipodi:namedview
     id="base"
     pagecolor="#ffffff"
     bordercolor="#666666"
     borderopacity="1.0"
     inkscape:pageopacity="0.0"
     inkscape:pageshadow="2"
     inkscape:zoom="1.4"
     inkscape:cx="-50.43941"
     inkscape:cy="53.210802"
     inkscape:document-units="px"
     inkscape:current-layer="g4953"
     showgrid="false"
     inkscape:window-width="1280"
     inkscape:window-height="657"
     inkscape:window-x="-8"
     inkscape:window-y="-8"
     inkscape:window-maximized="1"
     units="px" />
  <metadata
     id="metadata4298">
    <rdf:RDF>
      <cc:Work
         rdf:about="">
        <dc:format>image/svg+xml</dc:format>
        <dc:type
           rdf:resource="http://purl.org/dc/dcmitype/StillImage" />
        <dc:title></dc:title>
      </cc:Work>
    </rdf:RDF>
  </metadata>
  <g
     inkscape:label="Text"
     inkscape:groupmode="layer"
     id="layer1"
     transform="translate(0,-952.36216)"
     style="display:none"
     sodipodi:insensitive="true">
    <text
       xml:space="preserve"
       style="font-style:normal;font-variant:normal;font-weight:normal;font-stretch:normal;font-size:70px;line-height:125%;font-family:'Sweet &amp; Salty';-inkscape-font-specification:'Sweet &amp; Salty, Normal';text-align:start;letter-spacing:0px;word-spacing:0px;writing-mode:lr-tb;text-anchor:start;fill:#000000;fill-opacity:1;stroke:#868877;stroke-width:7;stroke-linecap:butt;stroke-linejoin:miter;stroke-miterlimit:4;stroke-dasharray:none;stroke-opacity:1"
       x="10.957725"
       y="897.20697"
       id="text4141"
       sodipodi:linespacing="125%"><tspan
         sodipodi:role="line"
         x="10.957725"
         y="897.20697"
         id="tspan4145">Whiskey</tspan></text>
    <text
       sodipodi:linespacing="125%"
       id="text4149"
       y="934.58258"
       x="36.21154"
       style="font-style:normal;font-variant:normal;font-weight:normal;font-stretch:normal;font-size:70px;line-height:125%;font-family:'Sweet &amp; Salty';-inkscape-font-specification:'Sweet &amp; Salty, Normal';text-align:start;letter-spacing:0px;word-spacing:0px;writing-mode:lr-tb;text-anchor:start;fill:#000000;fill-opacity:1;stroke:#868877;stroke-width:7;stroke-linecap:butt;stroke-linejoin:miter;stroke-miterlimit:4;stroke-dasharray:none;stroke-opacity:1"
       xml:space="preserve"><tspan
         id="tspan4151"
         y="934.58258"
         x="36.21154"
         sodipodi:role="line">Bear</tspan></text>
    <text
       xml:space="preserve"
       style="font-style:normal;font-variant:normal;font-weight:normal;font-stretch:normal;font-size:70px;line-height:125%;font-family:'Sweet &amp; Salty';-inkscape-font-specification:'Sweet &amp; Salty, Normal';text-align:start;letter-spacing:0px;word-spacing:0px;writing-mode:lr-tb;text-anchor:start;display:inline;fill:#000000;fill-opacity:1;stroke:none;stroke-width:1px;stroke-linecap:butt;stroke-linejoin:miter;stroke-opacity:1"
       x="10.957725"
       y="897.20697"
       id="text4141-8"
       sodipodi:linespacing="125%"><tspan
         sodipodi:role="line"
         x="10.957725"
         y="897.20697"
         id="tspan4145-4">Whiskey</tspan></text>
    <text
       sodipodi:linespacing="125%"
       id="text4149-6"
       y="934.58258"
       x="36.21154"
       style="font-style:normal;font-variant:normal;font-weight:normal;font-stretch:normal;font-size:70px;line-height:125%;font-family:'Sweet &amp; Salty';-inkscape-font-specification:'Sweet &amp; Salty, Normal';text-align:start;letter-spacing:0px;word-spacing:0px;writing-mode:lr-tb;text-anchor:start;display:inline;fill:#000000;fill-opacity:1;stroke:none;stroke-width:1px;stroke-linecap:butt;stroke-linejoin:miter;stroke-opacity:1"
       xml:space="preserve"><tspan
         id="tspan4151-9"
         y="934.58258"
         x="36.21154"
         sodipodi:role="line">Bear</tspan></text>
  </g>
  <g
     transform="translate(0,-952.36216)"
     id="g4953"
     inkscape:groupmode="layer"
     inkscape:label="Exportable Paths"
     style="display:inline">
    <g
       style="font-style:normal;font-variant:normal;font-weight:normal;font-stretch:normal;font-size:70px;line-height:125%;font-family:'Sweet &amp; Salty';-inkscape-font-specification:'Sweet &amp; Salty, Normal';text-align:start;letter-spacing:0px;word-spacing:0px;writing-mode:lr-tb;text-anchor:start;fill:#000000;fill-opacity:1;stroke:#868877;stroke-width:7;stroke-linecap:butt;stroke-linejoin:miter;stroke-miterlimit:4;stroke-dasharray:none;stroke-opacity:1"
       id="text4955" />
    <g
       style="font-style:normal;font-variant:normal;font-weight:normal;font-stretch:normal;font-size:70px;line-height:125%;font-family:'Sweet &amp; Salty';-inkscape-font-specification:'Sweet &amp; Salty, Normal';text-align:start;letter-spacing:0px;word-spacing:0px;writing-mode:lr-tb;text-anchor:start;fill:#000000;fill-opacity:1;stroke:#868877;stroke-width:7;stroke-linecap:butt;stroke-linejoin:miter;stroke-miterlimit:4;stroke-dasharray:none;stroke-opacity:1"
       id="text4959">
      <path
         sodipodi:type="inkscape:offset"
         inkscape:radius="0"
         inkscape:original="M 46.449219 959.38281 L 37.910156 994.45312 L 29.580078 964.91211 L 25.589844 964.91211 L 18.099609 994.45312 L 9.6992188 963.72266 L 5.7089844 964.84375 L 16.208984 1003.1328 L 20.199219 1003.1328 L 27.689453 973.52344 L 35.859375 1002.3887 C 34.560164 1002.3471 33.249851 1002.4047 31.943359 1002.6387 L 32.712891 1006.6992 L 34.042969 1006.5586 L 34.042969 1037.7793 L 32.642578 1037.498 L 31.943359 1041.6289 C 34.463359 1042.1189 36.634062 1042.3281 38.664062 1042.3281 C 43.704062 1042.3281 47.972656 1040.7182 49.722656 1036.6582 C 51.122656 1033.3682 50.353359 1028.8886 47.693359 1025.8086 C 47.903359 1025.7386 48.043906 1025.5987 48.253906 1025.3887 C 51.893906 1021.8187 51.962266 1017.1286 51.822266 1015.3086 C 51.3783 1009.2411 46.319709 1004.6637 40.103516 1003.0391 L 50.509766 960.43359 L 46.449219 959.38281 z M 145.52539 964.21289 L 141.74414 965.82227 L 150.84375 987.73242 L 150.84375 1004.7422 L 154.97461 1004.7422 L 154.97461 987.73242 L 164.14453 965.82227 L 160.36523 964.21289 L 152.94531 981.92383 L 145.52539 964.21289 z M 95.484375 964.4082 C 87.334297 964.48285 78.943203 969.74375 79.126953 977.09375 C 79.126953 979.68375 80.108047 981.85383 81.998047 983.67383 C 84.658047 986.26383 89.766875 988.01258 91.796875 990.39258 C 93.196875 992.00258 93.127656 993.82266 92.847656 995.22266 C 92.007656 999.91266 86.127734 1001.7334 81.927734 999.77344 L 80.177734 1003.5527 C 80.394331 1003.6563 80.641377 1003.6851 80.865234 1003.7715 L 75.921875 1021.6094 C 75.291875 1021.6094 74.241641 1021.6091 73.681641 1021.5391 L 73.472656 1024.6895 C 74.032656 1024.7595 74.802031 1024.8281 75.082031 1024.8281 L 71.021484 1039.7383 L 75.011719 1040.7891 L 79.351562 1025.1094 C 81.591562 1025.1094 85.581797 1025.1088 86.841797 1024.9688 L 91.8125 1045.4082 L 95.871094 1044.498 L 90.972656 1024.4785 C 92.162656 1024.2685 93.422031 1023.9177 94.332031 1023.4277 L 92.371094 1019.7891 C 91.461094 1020.1391 90.4825 1020.5586 90.0625 1020.5586 L 86.125 1004.5156 C 91.378769 1004.2878 95.899688 1001.3709 96.908203 995.99219 C 97.538203 992.63219 96.907578 989.97242 95.017578 987.73242 C 91.727578 983.88242 83.398125 982.34344 83.328125 977.02344 C 83.118125 971.49344 91.657969 967.57203 98.167969 968.83203 L 98.9375 964.70312 C 97.80875 964.49312 96.648672 964.39754 95.484375 964.4082 z M 64.080078 964.91211 L 64.080078 982.90234 L 55.46875 982.90234 L 55.46875 966.94336 L 51.339844 966.94336 L 51.339844 1004.8125 L 54.855469 1004.8125 L 54.855469 1042.1895 L 68.435547 1042.1895 L 68.435547 1038.3379 L 58.984375 1038.3379 L 58.984375 1027.6992 L 66.544922 1027.6992 L 66.544922 1023.7793 L 58.984375 1023.7793 L 58.984375 1006.209 L 68.435547 1006.209 L 68.435547 1002.2891 L 55.46875 1002.2891 L 55.46875 986.40234 L 64.080078 986.40234 L 64.080078 1000.8926 L 68.279297 1000.8926 L 68.279297 964.91211 L 64.080078 964.91211 z M 72.394531 964.91211 L 72.394531 1000.8926 L 76.523438 1000.8926 L 76.523438 964.91211 L 72.394531 964.91211 z M 101.51562 964.91211 L 101.51562 1002.4082 C 100.1601 1002.3506 98.79389 1002.3929 97.431641 1002.6387 L 98.130859 1006.6992 L 99.53125 1006.5586 L 99.53125 1042.1895 L 103.80078 1042.1895 L 103.80078 1029.0977 C 104.92078 1029.0977 106.0418 1028.958 107.0918 1028.748 L 117.5918 1045.4082 L 121.0918 1043.2383 L 111.08203 1027.2793 C 112.06203 1026.7893 112.90188 1026.0887 113.67188 1025.3887 C 117.31188 1021.8187 117.38219 1017.1286 117.24219 1015.3086 C 116.8006 1009.2735 111.79069 1004.7164 105.64453 1003.0684 L 105.64453 995.01367 L 108.72461 990.32227 L 120.06445 1007.9629 L 123.56445 1005.7227 L 111.10547 986.33203 L 123.28516 967.15234 L 119.71484 964.91211 L 105.64453 987.24219 L 105.64453 964.91211 L 101.51562 964.91211 z M 125.57812 964.91211 L 125.57812 1004.8125 L 139.1582 1004.8125 L 139.1582 1000.9629 L 129.70703 1000.9629 L 129.70703 990.32227 L 137.26758 990.32227 L 137.26758 986.40234 L 129.70703 986.40234 L 129.70703 968.83203 L 139.1582 968.83203 L 139.1582 964.91211 L 125.57812 964.91211 z M 38.382812 1006.7695 C 43.142812 1007.8195 47.413359 1011.3179 47.693359 1015.5879 C 47.973359 1021.2579 44.402813 1024.6884 38.382812 1024.8984 L 38.382812 1006.7695 z M 103.80078 1006.7695 C 108.56078 1007.8195 112.69133 1011.2479 113.11133 1015.5879 C 113.46133 1021.2579 109.82078 1024.6884 103.80078 1024.8984 L 103.80078 1006.7695 z M 83.341797 1010.5488 L 85.931641 1021.2578 C 86.001641 1021.2578 82.081719 1021.6094 80.261719 1021.6094 L 83.341797 1010.5488 z M 43.914062 1028.1191 C 45.944063 1029.3091 46.853359 1033.0182 45.943359 1034.9082 C 44.683359 1037.7082 41.392813 1038.1992 38.382812 1038.1992 L 38.382812 1029.0977 C 40.412813 1029.0277 41.394062 1028.8191 43.914062 1028.1191 z "
         id="path5023"
         d="m 46.449219,959.38281 -8.539063,35.07031 -8.330078,-29.54101 -3.990234,0 -7.490235,29.54101 -8.4003902,-30.73046 -3.9902344,1.12109 10.4999996,38.28905 3.990235,0 7.490234,-29.60936 8.169922,28.86526 c -1.299211,-0.042 -2.609524,0.016 -3.916016,0.25 l 0.769532,4.0605 1.330078,-0.1406 0,31.2207 -1.400391,-0.2813 -0.699219,4.1309 c 2.52,0.49 4.690703,0.6992 6.720703,0.6992 5.04,0 9.308594,-1.6099 11.058594,-5.6699 1.4,-3.29 0.630703,-7.7696 -2.029297,-10.8496 0.21,-0.07 0.350547,-0.2099 0.560547,-0.4199 3.64,-3.57 3.70836,-8.2601 3.56836,-10.0801 -0.443966,-6.0675 -5.502557,-10.6449 -11.71875,-12.2695 l 10.40625,-42.60551 -4.060547,-1.05078 z m 99.076171,4.83008 -3.78125,1.60938 9.09961,21.91015 0,17.00978 4.13086,0 0,-17.00978 9.16992,-21.91015 -3.7793,-1.60938 -7.41992,17.71094 -7.41992,-17.71094 z m -50.041015,0.19531 c -8.150078,0.0747 -16.541172,5.33555 -16.357422,12.68555 0,2.59 0.981094,4.76008 2.871094,6.58008 2.66,2.59 7.768828,4.33875 9.798828,6.71875 1.4,1.61 1.330781,3.43008 1.050781,4.83008 -0.84,4.69 -6.719922,6.51074 -10.919922,4.55078 l -1.75,3.77926 c 0.216597,0.1036 0.463643,0.1324 0.6875,0.2188 l -4.943359,17.8379 c -0.63,0 -1.680234,-3e-4 -2.240234,-0.07 l -0.208985,3.1504 c 0.56,0.07 1.329375,0.1386 1.609375,0.1386 l -4.060547,14.9102 3.990235,1.0508 4.339843,-15.6797 c 2.24,0 6.230235,-6e-4 7.490235,-0.1406 l 4.970703,20.4394 4.058594,-0.9102 -4.898438,-20.0195 c 1.19,-0.21 2.449375,-0.5608 3.359375,-1.0508 l -1.960937,-3.6386 c -0.91,0.35 -1.888594,0.7695 -2.308594,0.7695 l -3.9375,-16.043 c 5.253769,-0.2278 9.774688,-3.1447 10.783203,-8.52341 0.63,-3.36 -6.25e-4,-6.01977 -1.890625,-8.25977 -3.29,-3.85 -11.619453,-5.38898 -11.689453,-10.70898 -0.21,-5.53 8.329844,-9.45141 14.839844,-8.19141 l 0.769531,-4.12891 c -1.12875,-0.21 -2.288828,-0.30558 -3.453125,-0.29492 z m -31.404297,0.50391 0,17.99023 -8.611328,0 0,-15.95898 -4.128906,0 0,37.86914 3.515625,0 0,37.377 13.580078,0 0,-3.8516 -9.451172,0 0,-10.6387 7.560547,0 0,-3.9199 -7.560547,0 0,-17.5703 9.451172,0 0,-3.9199 -12.966797,0 0,-15.88676 8.611328,0 0,14.49026 4.199219,0 0,-35.98049 -4.199219,0 z m 8.314453,0 0,35.98049 4.128907,0 0,-35.98049 -4.128907,0 z m 29.121089,0 0,37.49609 c -1.35552,-0.058 -2.72173,-0.015 -4.083979,0.2305 l 0.699218,4.0605 1.400391,-0.1406 0,35.6309 4.26953,0 0,-13.0918 c 1.12,0 2.24102,-0.1397 3.29102,-0.3497 l 10.5,16.6602 3.5,-2.1699 -10.00977,-15.959 c 0.98,-0.49 1.81985,-1.1906 2.58985,-1.8906 3.64,-3.57 3.71031,-8.2601 3.57031,-10.0801 -0.44159,-6.0351 -5.4515,-10.5922 -11.59766,-12.2402 l 0,-8.05473 3.08008,-4.6914 11.33984,17.64063 3.5,-2.2402 -12.45898,-19.39067 12.17969,-19.17969 -3.57032,-2.24023 -14.07031,22.33008 0,-22.33008 -4.12891,0 z m 24.0625,0 0,39.90039 13.58008,0 0,-3.8496 -9.45117,0 0,-10.64063 7.56055,0 0,-3.91993 -7.56055,0 0,-17.57031 9.45117,0 0,-3.91992 -13.58008,0 z m -87.195308,41.85739 c 4.76,1.05 9.030547,4.5484 9.310547,8.8184 0.28,5.67 -3.290546,9.1005 -9.310547,9.3105 l 0,-18.1289 z m 65.417968,0 c 4.76,1.05 8.89055,4.4784 9.31055,8.8184 0.35,5.67 -3.29055,9.1005 -9.31055,9.3105 l 0,-18.1289 z m -20.458983,3.7793 2.589844,10.709 c 0.07,0 -3.849922,0.3516 -5.669922,0.3516 l 3.080078,-11.0606 z m -39.427735,17.5703 c 2.030001,1.19 2.939297,4.8991 2.029297,6.7891 -1.26,2.8 -4.550546,3.291 -7.560547,3.291 l 0,-9.1015 c 2.030001,-0.07 3.01125,-0.2786 5.53125,-0.9786 z" />
    </g>
    <g
       style="font-style:normal;font-variant:normal;font-weight:normal;font-stretch:normal;font-size:70px;line-height:125%;font-family:'Sweet &amp; Salty';-inkscape-font-specification:'Sweet &amp; Salty, Normal';text-align:start;letter-spacing:0px;word-spacing:0px;writing-mode:lr-tb;text-anchor:start;display:inline;fill:#000000;fill-opacity:1;stroke:none;stroke-width:1px;stroke-linecap:butt;stroke-linejoin:miter;stroke-opacity:1"
       id="text4963" />
    <g
       style="font-style:normal;font-variant:normal;font-weight:normal;font-stretch:normal;font-size:70px;line-height:125%;font-family:'Sweet &amp; Salty';-inkscape-font-specification:'Sweet &amp; Salty, Normal';text-align:start;letter-spacing:0px;word-spacing:0px;writing-mode:lr-tb;text-anchor:start;display:inline;fill:#000000;fill-opacity:1;stroke:none;stroke-width:1px;stroke-linecap:butt;stroke-linejoin:miter;stroke-opacity:1"
       id="text4967">
      <path
         sodipodi:type="inkscape:offset"
         inkscape:radius="0"
         inkscape:original="M 46.449219 959.38281 L 37.910156 994.45312 L 29.580078 964.91211 L 25.589844 964.91211 L 18.099609 994.45312 L 9.6992188 963.72266 L 5.7089844 964.84375 L 16.208984 1003.1328 L 20.199219 1003.1328 L 27.689453 973.52344 L 35.859375 1002.3887 C 34.560164 1002.3471 33.249851 1002.4047 31.943359 1002.6387 L 32.712891 1006.6992 L 34.042969 1006.5586 L 34.042969 1037.7793 L 32.642578 1037.498 L 31.943359 1041.6289 C 34.463359 1042.1189 36.634062 1042.3281 38.664062 1042.3281 C 43.704062 1042.3281 47.972656 1040.7182 49.722656 1036.6582 C 51.122656 1033.3682 50.353359 1028.8886 47.693359 1025.8086 C 47.903359 1025.7386 48.043906 1025.5987 48.253906 1025.3887 C 51.893906 1021.8187 51.962266 1017.1286 51.822266 1015.3086 C 51.3783 1009.2411 46.319709 1004.6637 40.103516 1003.0391 L 50.509766 960.43359 L 46.449219 959.38281 z M 145.52539 964.21289 L 141.74414 965.82227 L 150.84375 987.73242 L 150.84375 1004.7422 L 154.97461 1004.7422 L 154.97461 987.73242 L 164.14453 965.82227 L 160.36523 964.21289 L 152.94531 981.92383 L 145.52539 964.21289 z M 95.484375 964.4082 C 87.334297 964.48285 78.943203 969.74375 79.126953 977.09375 C 79.126953 979.68375 80.108047 981.85383 81.998047 983.67383 C 84.658047 986.26383 89.766875 988.01258 91.796875 990.39258 C 93.196875 992.00258 93.127656 993.82266 92.847656 995.22266 C 92.007656 999.91266 86.127734 1001.7334 81.927734 999.77344 L 80.177734 1003.5527 C 80.394331 1003.6563 80.641377 1003.6851 80.865234 1003.7715 L 75.921875 1021.6094 C 75.291875 1021.6094 74.241641 1021.6091 73.681641 1021.5391 L 73.472656 1024.6895 C 74.032656 1024.7595 74.802031 1024.8281 75.082031 1024.8281 L 71.021484 1039.7383 L 75.011719 1040.7891 L 79.351562 1025.1094 C 81.591562 1025.1094 85.581797 1025.1088 86.841797 1024.9688 L 91.8125 1045.4082 L 95.871094 1044.498 L 90.972656 1024.4785 C 92.162656 1024.2685 93.422031 1023.9177 94.332031 1023.4277 L 92.371094 1019.7891 C 91.461094 1020.1391 90.4825 1020.5586 90.0625 1020.5586 L 86.125 1004.5156 C 91.378769 1004.2878 95.899688 1001.3709 96.908203 995.99219 C 97.538203 992.63219 96.907578 989.97242 95.017578 987.73242 C 91.727578 983.88242 83.398125 982.34344 83.328125 977.02344 C 83.118125 971.49344 91.657969 967.57203 98.167969 968.83203 L 98.9375 964.70312 C 97.80875 964.49312 96.648672 964.39754 95.484375 964.4082 z M 64.080078 964.91211 L 64.080078 982.90234 L 55.46875 982.90234 L 55.46875 966.94336 L 51.339844 966.94336 L 51.339844 1004.8125 L 54.855469 1004.8125 L 54.855469 1042.1895 L 68.435547 1042.1895 L 68.435547 1038.3379 L 58.984375 1038.3379 L 58.984375 1027.6992 L 66.544922 1027.6992 L 66.544922 1023.7793 L 58.984375 1023.7793 L 58.984375 1006.209 L 68.435547 1006.209 L 68.435547 1002.2891 L 55.46875 1002.2891 L 55.46875 986.40234 L 64.080078 986.40234 L 64.080078 1000.8926 L 68.279297 1000.8926 L 68.279297 964.91211 L 64.080078 964.91211 z M 72.394531 964.91211 L 72.394531 1000.8926 L 76.523438 1000.8926 L 76.523438 964.91211 L 72.394531 964.91211 z M 101.51562 964.91211 L 101.51562 1002.4082 C 100.1601 1002.3506 98.79389 1002.3929 97.431641 1002.6387 L 98.130859 1006.6992 L 99.53125 1006.5586 L 99.53125 1042.1895 L 103.80078 1042.1895 L 103.80078 1029.0977 C 104.92078 1029.0977 106.0418 1028.958 107.0918 1028.748 L 117.5918 1045.4082 L 121.0918 1043.2383 L 111.08203 1027.2793 C 112.06203 1026.7893 112.90188 1026.0887 113.67188 1025.3887 C 117.31188 1021.8187 117.38219 1017.1286 117.24219 1015.3086 C 116.8006 1009.2735 111.79069 1004.7164 105.64453 1003.0684 L 105.64453 995.01367 L 108.72461 990.32227 L 120.06445 1007.9629 L 123.56445 1005.7227 L 111.10547 986.33203 L 123.28516 967.15234 L 119.71484 964.91211 L 105.64453 987.24219 L 105.64453 964.91211 L 101.51562 964.91211 z M 125.57812 964.91211 L 125.57812 1004.8125 L 139.1582 1004.8125 L 139.1582 1000.9629 L 129.70703 1000.9629 L 129.70703 990.32227 L 137.26758 990.32227 L 137.26758 986.40234 L 129.70703 986.40234 L 129.70703 968.83203 L 139.1582 968.83203 L 139.1582 964.91211 L 125.57812 964.91211 z M 38.382812 1006.7695 C 43.142812 1007.8195 47.413359 1011.3179 47.693359 1015.5879 C 47.973359 1021.2579 44.402813 1024.6884 38.382812 1024.8984 L 38.382812 1006.7695 z M 103.80078 1006.7695 C 108.56078 1007.8195 112.69133 1011.2479 113.11133 1015.5879 C 113.46133 1021.2579 109.82078 1024.6884 103.80078 1024.8984 L 103.80078 1006.7695 z M 83.341797 1010.5488 L 85.931641 1021.2578 C 86.001641 1021.2578 82.081719 1021.6094 80.261719 1021.6094 L 83.341797 1010.5488 z M 43.914062 1028.1191 C 45.944063 1029.3091 46.853359 1033.0182 45.943359 1034.9082 C 44.683359 1037.7082 41.392813 1038.1992 38.382812 1038.1992 L 38.382812 1029.0977 C 40.412813 1029.0277 41.394062 1028.8191 43.914062 1028.1191 z "
         id="path5020"
         d="m 46.449219,959.38281 -8.539063,35.07031 -8.330078,-29.54101 -3.990234,0 -7.490235,29.54101 -8.4003902,-30.73046 -3.9902344,1.12109 10.4999996,38.28905 3.990235,0 7.490234,-29.60936 8.169922,28.86526 c -1.299211,-0.042 -2.609524,0.016 -3.916016,0.25 l 0.769532,4.0605 1.330078,-0.1406 0,31.2207 -1.400391,-0.2813 -0.699219,4.1309 c 2.52,0.49 4.690703,0.6992 6.720703,0.6992 5.04,0 9.308594,-1.6099 11.058594,-5.6699 1.4,-3.29 0.630703,-7.7696 -2.029297,-10.8496 0.21,-0.07 0.350547,-0.2099 0.560547,-0.4199 3.64,-3.57 3.70836,-8.2601 3.56836,-10.0801 -0.443966,-6.0675 -5.502557,-10.6449 -11.71875,-12.2695 l 10.40625,-42.60551 -4.060547,-1.05078 z m 99.076171,4.83008 -3.78125,1.60938 9.09961,21.91015 0,17.00978 4.13086,0 0,-17.00978 9.16992,-21.91015 -3.7793,-1.60938 -7.41992,17.71094 -7.41992,-17.71094 z m -50.041015,0.19531 c -8.150078,0.0747 -16.541172,5.33555 -16.357422,12.68555 0,2.59 0.981094,4.76008 2.871094,6.58008 2.66,2.59 7.768828,4.33875 9.798828,6.71875 1.4,1.61 1.330781,3.43008 1.050781,4.83008 -0.84,4.69 -6.719922,6.51074 -10.919922,4.55078 l -1.75,3.77926 c 0.216597,0.1036 0.463643,0.1324 0.6875,0.2188 l -4.943359,17.8379 c -0.63,0 -1.680234,-3e-4 -2.240234,-0.07 l -0.208985,3.1504 c 0.56,0.07 1.329375,0.1386 1.609375,0.1386 l -4.060547,14.9102 3.990235,1.0508 4.339843,-15.6797 c 2.24,0 6.230235,-6e-4 7.490235,-0.1406 l 4.970703,20.4394 4.058594,-0.9102 -4.898438,-20.0195 c 1.19,-0.21 2.449375,-0.5608 3.359375,-1.0508 l -1.960937,-3.6386 c -0.91,0.35 -1.888594,0.7695 -2.308594,0.7695 l -3.9375,-16.043 c 5.253769,-0.2278 9.774688,-3.1447 10.783203,-8.52341 0.63,-3.36 -6.25e-4,-6.01977 -1.890625,-8.25977 -3.29,-3.85 -11.619453,-5.38898 -11.689453,-10.70898 -0.21,-5.53 8.329844,-9.45141 14.839844,-8.19141 l 0.769531,-4.12891 c -1.12875,-0.21 -2.288828,-0.30558 -3.453125,-0.29492 z m -31.404297,0.50391 0,17.99023 -8.611328,0 0,-15.95898 -4.128906,0 0,37.86914 3.515625,0 0,37.377 13.580078,0 0,-3.8516 -9.451172,0 0,-10.6387 7.560547,0 0,-3.9199 -7.560547,0 0,-17.5703 9.451172,0 0,-3.9199 -12.966797,0 0,-15.88676 8.611328,0 0,14.49026 4.199219,0 0,-35.98049 -4.199219,0 z m 8.314453,0 0,35.98049 4.128907,0 0,-35.98049 -4.128907,0 z m 29.121089,0 0,37.49609 c -1.35552,-0.058 -2.72173,-0.015 -4.083979,0.2305 l 0.699218,4.0605 1.400391,-0.1406 0,35.6309 4.26953,0 0,-13.0918 c 1.12,0 2.24102,-0.1397 3.29102,-0.3497 l 10.5,16.6602 3.5,-2.1699 -10.00977,-15.959 c 0.98,-0.49 1.81985,-1.1906 2.58985,-1.8906 3.64,-3.57 3.71031,-8.2601 3.57031,-10.0801 -0.44159,-6.0351 -5.4515,-10.5922 -11.59766,-12.2402 l 0,-8.05473 3.08008,-4.6914 11.33984,17.64063 3.5,-2.2402 -12.45898,-19.39067 12.17969,-19.17969 -3.57032,-2.24023 -14.07031,22.33008 0,-22.33008 -4.12891,0 z m 24.0625,0 0,39.90039 13.58008,0 0,-3.8496 -9.45117,0 0,-10.64063 7.56055,0 0,-3.91993 -7.56055,0 0,-17.57031 9.45117,0 0,-3.91992 -13.58008,0 z m -87.195308,41.85739 c 4.76,1.05 9.030547,4.5484 9.310547,8.8184 0.28,5.67 -3.290546,9.1005 -9.310547,9.3105 l 0,-18.1289 z m 65.417968,0 c 4.76,1.05 8.89055,4.4784 9.31055,8.8184 0.35,5.67 -3.29055,9.1005 -9.31055,9.3105 l 0,-18.1289 z m -20.458983,3.7793 2.589844,10.709 c 0.07,0 -3.849922,0.3516 -5.669922,0.3516 l 3.080078,-11.0606 z m -39.427735,17.5703 c 2.030001,1.19 2.939297,4.8991 2.029297,6.7891 -1.26,2.8 -4.550546,3.291 -7.560547,3.291 l 0,-9.1015 c 2.030001,-0.07 3.01125,-0.2786 5.53125,-0.9786 z" />
    </g>
  </g>
</svg>
