<?xml version="1.0" encoding="UTF-8" standalone="no"?>
<!-- Created with Inkscape (http://www.inkscape.org/) -->

<svg
   xmlns:dc="http://purl.org/dc/elements/1.1/"
   xmlns:cc="http://creativecommons.org/ns#"
   xmlns:rdf="http://www.w3.org/1999/02/22-rdf-syntax-ns#"
   xmlns:svg="http://www.w3.org/2000/svg"
   xmlns="http://www.w3.org/2000/svg"
   xmlns:xlink="http://www.w3.org/1999/xlink"
   xmlns:sodipodi="http://sodipodi.sourceforge.net/DTD/sodipodi-0.dtd"
   xmlns:inkscape="http://www.inkscape.org/namespaces/inkscape"
   width="210mm"
   height="297mm"
   viewBox="0 0 744.09448819 1052.3622047"
   id="svg2"
   version="1.1"
   inkscape:version="0.91 r13725"
   sodipodi:docname="bear-art.svg">
  <defs
     id="defs4" />
  <sodipodi:namedview
     id="base"
     pagecolor="#ffffff"
     bordercolor="#666666"
     borderopacity="1.0"
     inkscape:pageopacity="0.0"
     inkscape:pageshadow="2"
     inkscape:zoom="0.7"
     inkscape:cx="175.78376"
     inkscape:cy="527.36677"
     inkscape:document-units="px"
     inkscape:current-layer="layer2"
     showgrid="false"
     inkscape:window-width="1280"
     inkscape:window-height="657"
     inkscape:window-x="-8"
     inkscape:window-y="-8"
     inkscape:window-maximized="1" />
  <metadata
     id="metadata7">
    <rdf:RDF>
      <cc:Work
         rdf:about="">
        <dc:format>image/svg+xml</dc:format>
        <dc:type
           rdf:resource="http://purl.org/dc/dcmitype/StillImage" />
        <dc:title></dc:title>
      </cc:Work>
    </rdf:RDF>
  </metadata>
  <g
     inkscape:label="Image"
     inkscape:groupmode="layer"
     id="layer1"
     style="display:none">
    <image
       sodipodi:absref="C:\Users\aseab_000\Documents\GitHub\GitHub-Game-Off\Inkscape\source images\2010-brown-bear.jpg"
       xlink:href="source images\2010-brown-bear.jpg"
       width="249"
       height="375"
       preserveAspectRatio="none"
       id="image4144"
       x="215.50002"
       y="273.43365" />
  </g>
  <g
     inkscape:groupmode="layer"
     id="layer3"
     inkscape:label="Bear BodyBack"
     style="display:inline">
    <path
       style="fill:#573900;fill-opacity:1;fill-rule:evenodd;stroke:none;stroke-width:1px;stroke-linecap:butt;stroke-linejoin:miter;stroke-opacity:1"
       d="m 237.66069,646.51548 c 14.59082,-46.44035 -15.1439,-72.32337 -13.40682,-119.4326 -2.40471,-28.96452 -6.53525,-53.32865 14.07034,-76.76108 12.50029,-19.89219 13.99471,-24.7198 13.58014,-37.23207 3.60177,-16.35528 33.06531,-22.49428 45.0805,-41.57034 l 61.6193,144.45181 -57.57869,32.32488 2.78536,90.95398 z"
       id="path4153"
       inkscape:connector-curvature="0"
       sodipodi:nodetypes="ccccccccc" />
  </g>
  <g
     inkscape:groupmode="layer"
     id="layer4"
     inkscape:label="Bear BodyFront">
    <path
       style="fill:#69491f;fill-rule:evenodd;stroke:none;stroke-width:1px;stroke-linecap:butt;stroke-linejoin:miter;stroke-opacity:1;fill-opacity:1"
       d="m 281.85443,635.89031 c -9.54512,-19.72002 -19.83469,-39.17729 -18.283,-62.81382 0.86633,-16.27652 -1.88808,-36.17379 5.71428,-45.71429 5.85223,-27.24457 3.97739,-45.43158 1.04605,-65.25254 -2.93135,-19.82096 2.39929,-61.33885 10.29587,-74.87 10.27223,-4.49947 13.35767,-11.45071 17.85714,-18.52811 l 124.37237,26.5078 c 1.21894,25.82983 16.40312,32.89734 23.35479,63.09481 -1.19048,18.57143 -3.65405,31.98016 0.21664,64.04804 3.07549,21.32504 2.88431,39.85008 1.26269,57.14902 -6.69239,28.18619 -15.43405,39.97813 -23.32632,58.56527 l -52.93637,0 -2.85714,-45.71429 5.71428,-21.42857 c 2.2153,-11.20515 -1.34834,-25.10826 -10,-20 -8.65166,5.10826 -7.37738,10.26897 -13.11711,12.90047 1.74569,-6.71987 -3.95709,-9.6488 -9.02574,-12.90047 -9.30321,4.91121 -11.51305,19.4952 -13.57143,34.28572 1.25522,15.0937 2.84391,40.96561 12.85714,52.85714 z"
       id="path4173"
       inkscape:connector-curvature="0"
       sodipodi:nodetypes="ccczcccccccccczccccc" />
  </g>
  <g
     inkscape:groupmode="layer"
     id="layer5"
     inkscape:label="Bear Head">
    <path
       style="fill:#7b5735;fill-rule:evenodd;stroke:none;stroke-width:1px;stroke-linecap:butt;stroke-linejoin:miter;stroke-opacity:1;fill-opacity:1"
       d="m 304.28571,360.21935 -5.71428,8.92857 c -10.29507,9.33272 -10.27786,33.6651 -10.35714,57.85714 0.76464,25.62537 15.18412,39.03326 33.92857,48.57143 13.93021,-1.79716 29.90449,-9.61297 35.71428,12.5 4.42117,2.42078 5.6205,8.70778 7.85714,13.75 15.41421,-7.72837 14.31078,-28.16435 38.57143,-26.25 15.92055,6.57658 23.29635,-0.37601 27.85715,-11.78571 4.45399,-19.23649 28.18547,-19.19548 13.21428,-57.85715 -5.23805,-13.61264 -6.19432,-26.52546 -17.14285,-41.07143 -1.74057,-4.52381 -3.08374,-9.04761 -1.07143,-13.57142 4.28559,-17.30097 0.4039,-33.16471 -15,-32.14286 -4.17674,0.82622 -6.99217,-1.41048 -12.85715,3.21428 -3.09651,4.63901 -6.31337,5.70273 -11.78571,3.21429 -3.98,-2.86794 -12.92344,-1.14176 -19.64286,-0.35714 -3.41343,1.24781 -7.24169,1.25111 -11.60714,-0.35715 -6.35139,-0.28323 -11.23727,-2.88483 -15.89286,1.07143 -2.2619,1.45955 -3.1565,2.48686 -7.92213,-2.43872 -4.76563,-4.92558 -16.56143,-7.671 -24.57787,1.72444 -2.2672,3.86375 -3.74344,8.51846 -4.10714,14.28571 l 2.32142,8.03572 c 1.59937,5.68926 -0.78512,8.72262 -1.78571,12.67857 z"
       id="path4175"
       inkscape:connector-curvature="0"
       sodipodi:nodetypes="ccccccccccccccccczcccc" />
  </g>
  <g
     inkscape:groupmode="layer"
     id="layer7"
     inkscape:label="Bear Nose">
    <path
       style="fill:#9f9474;fill-rule:evenodd;stroke:none;stroke-width:1px;stroke-linecap:butt;stroke-linejoin:miter;stroke-opacity:1;fill-opacity:1"
       d="m 349.51278,361.41786 c -2.56677,1.82573 -8.06683,24.79789 -8.08122,26.26397 -2.90708,12.98034 2.51863,18.45773 8.33376,21.46574 7.21866,-1.82463 13.73328,-1.60346 19.69797,0 11.71653,-4.13751 10.44863,-12.83712 10.10153,-21.2132 -0.72464,-8.34721 0.3805,-18.21923 -4.04061,-23.48605 -4.48178,-4.71052 -8.19832,-11.14283 -13.88959,-13.13199 -5.43219,1.74367 -8.62829,6.09612 -12.12184,10.10153 z"
       id="path4187"
       inkscape:connector-curvature="0"
       sodipodi:nodetypes="cccccccc" />
  </g>
  <g
     inkscape:groupmode="layer"
     id="layer6"
     inkscape:label="Bear Facial Features">
    <path
       style="fill:#573900;fill-rule:evenodd;stroke:none;stroke-width:1px;stroke-linecap:butt;stroke-linejoin:miter;stroke-opacity:1;fill-opacity:1"
       d="m 327.87509,332.27927 c -3.08553,2.12582 -8.19815,3.60953 -12.87138,11.35614 0,0 -2.94432,2.81962 -3.45073,-4.77778 -0.5064,-7.5974 6.36574,-10.92181 10.12441,-11.05349 3.75868,-0.13168 9.28323,2.3493 6.1977,4.47513 z"
       id="path4177"
       inkscape:connector-curvature="0"
       sodipodi:nodetypes="zczzz" />
    <path
       style="fill:#573900;fill-rule:evenodd;stroke:none;stroke-width:1px;stroke-linecap:butt;stroke-linejoin:miter;stroke-opacity:1;fill-opacity:1"
       d="m 402.14286,333.79078 c 2.82998,1.43588 9.67103,7.21668 14.67875,13.79672 5.00771,6.58003 3.3395,-8.28224 2.42449,-12.18618 -0.91501,-3.90394 -3.07149,-8.21638 -8.06821,-8.22852 -4.99672,-0.0121 -11.86501,5.1821 -9.03503,6.61798 z"
       id="path4179"
       inkscape:connector-curvature="0"
       sodipodi:nodetypes="zzzzz" />
    <path
       style="fill:#000000;fill-rule:evenodd;stroke:none;stroke-width:1px;stroke-linecap:butt;stroke-linejoin:miter;stroke-opacity:1;fill-opacity:1"
       d="m 376.36729,362.48847 c 2.20272,3.54293 6.96926,2.36987 8.73917,1.66192 1.76991,-0.70795 1.11611,-4.04267 0.29216,-5.07737 -0.82395,-1.0347 -5.48269,-3.09215 -7.24561,-1.98316 -1.76291,1.10899 -3.98843,1.85568 -1.78572,5.39861 z"
       id="path4181"
       inkscape:connector-curvature="0"
       sodipodi:nodetypes="zzzzz" />
    <path
       style="fill:#000000;fill-rule:evenodd;stroke:none;stroke-width:1px;stroke-linecap:butt;stroke-linejoin:miter;stroke-opacity:1;fill-opacity:1"
       d="m 347.38905,361.90243 c -0.48262,1.47795 -2.37204,2.8916 -4.90514,3.79661 -2.53309,0.90502 -4.62292,-0.96923 -5.02538,-3.20252 -0.40246,-2.23329 2.51435,-7.48255 6.59445,-6.21565 4.08011,1.2669 3.8187,4.1436 3.33607,5.62156 z"
       id="path4183"
       inkscape:connector-curvature="0"
       sodipodi:nodetypes="zzzzz" />
    <path
       style="fill:#000000;fill-opacity:1;fill-rule:evenodd;stroke:none;stroke-width:1px;stroke-linecap:butt;stroke-linejoin:miter;stroke-opacity:1"
       d="m 351.21741,403.65487 c 3.59713,-0.0545 5.17704,-0.44194 7.07107,0.31567 1.89404,0.75762 3.91642,0.13104 5.68211,-0.25254 1.76568,-0.38357 4.61998,-0.11227 7.32361,-0.0631 2.70363,0.0491 -4.5398,-3.29421 -6.62913,-4.35629 -2.08933,-1.06208 -1.14099,-3.20094 -1.26269,-4.92449 0.14571,-4.13608 5.00943,-2.00427 7.07107,-3.15673 3.82342,-6.47623 1.58421,-10.30006 0.25253,-14.52094 -2.25257,-3.82807 -5.91067,-3.97847 -9.59644,-4.16688 l -3.91435,0.25254 c -3.12845,0.17184 -5.13889,0.42733 -7.95495,4.67195 -2.65367,3.3795 -1.81869,9.2627 0.12627,12.62691 1.94496,3.36421 4.20897,3.25745 6.31346,2.90419 1.56453,-0.0986 2.08883,2.95441 1.70462,4.54569 -0.3842,1.59128 -9.78431,6.1785 -6.18718,6.12405 z"
       id="path4185"
       inkscape:connector-curvature="0"
       sodipodi:nodetypes="zzzzzcccccczczz" />
  </g>
  <g
     inkscape:groupmode="layer"
     id="layer2"
     inkscape:label="Grass Fore">
    <path
       style="fill:#009000;fill-opacity:1;fill-rule:evenodd;stroke:none;stroke-width:1px;stroke-linecap:butt;stroke-linejoin:miter;stroke-opacity:1"
       d="m 220.75603,652.3622 c -13.50896,-20.90149 6.60105,-22.28681 22.57869,-30.16218 15.97765,-7.87537 52.39593,-9.60144 68.76217,-3.01994 16.79875,8.10588 31.32285,6.81525 52.23206,-1.18347 20.97063,-7.31364 38.21658,-12.37105 54.80205,-7.55076 16.58548,4.82029 35.6874,9.94937 21.44044,41.91635 z"
       id="path4150"
       inkscape:connector-curvature="0"
       sodipodi:nodetypes="czcczcc" />
  </g>
</svg>
