<?xml version="1.0" encoding="UTF-8" standalone="no"?>
<!-- Created with Inkscape (http://www.inkscape.org/) -->

<svg
   xmlns:dc="http://purl.org/dc/elements/1.1/"
   xmlns:cc="http://creativecommons.org/ns#"
   xmlns:rdf="http://www.w3.org/1999/02/22-rdf-syntax-ns#"
   xmlns:svg="http://www.w3.org/2000/svg"
   xmlns="http://www.w3.org/2000/svg"
   xmlns:xlink="http://www.w3.org/1999/xlink"
   xmlns:sodipodi="http://sodipodi.sourceforge.net/DTD/sodipodi-0.dtd"
   xmlns:inkscape="http://www.inkscape.org/namespaces/inkscape"
   width="315"
   height="250"
   viewBox="0 0 315 250"
   id="svg2"
   version="1.1"
   inkscape:version="0.91 r13725"
   sodipodi:docname="itch-cover-art.svg"
   inkscape:export-filename="C:\Users\aseab_000\Documents\GitHub\GitHub-Game-Off\itch-io-cover.png"
   inkscape:export-xdpi="90"
   inkscape:export-ydpi="90">
  <defs
     id="defs4" />
  <sodipodi:namedview
     id="base"
     pagecolor="#ffffff"
     bordercolor="#666666"
     borderopacity="1.0"
     inkscape:pageopacity="0.0"
     inkscape:pageshadow="2"
     inkscape:zoom="0.98994949"
     inkscape:cx="93.197502"
     inkscape:cy="66.52527"
     inkscape:document-units="px"
     inkscape:current-layer="layer2"
     showgrid="false"
     inkscape:window-width="1280"
     inkscape:window-height="657"
     inkscape:window-x="-8"
     inkscape:window-y="-8"
     inkscape:window-maximized="1"
     units="px" />
  <metadata
     id="metadata7">
    <rdf:RDF>
      <cc:Work
         rdf:about="">
        <dc:format>image/svg+xml</dc:format>
        <dc:type
           rdf:resource="http://purl.org/dc/dcmitype/StillImage" />
        <dc:title />
      </cc:Work>
    </rdf:RDF>
  </metadata>
  <g
     inkscape:groupmode="layer"
     id="layer8"
     inkscape:label="bg">
    <rect
       style="color:#000000;clip-rule:nonzero;display:inline;overflow:visible;visibility:visible;opacity:1;isolation:auto;mix-blend-mode:normal;color-interpolation:sRGB;color-interpolation-filters:linearRGB;solid-color:#000000;solid-opacity:1;fill:#9acfdd;fill-opacity:1;fill-rule:evenodd;stroke:none;stroke-width:1px;stroke-linecap:butt;stroke-linejoin:miter;stroke-miterlimit:4;stroke-dasharray:none;stroke-dashoffset:0;stroke-opacity:1;color-rendering:auto;image-rendering:auto;shape-rendering:auto;text-rendering:auto;enable-background:accumulate"
       id="rect4825"
       width="315"
       height="250"
       x="0"
       y="-1.7763568e-014" />
  </g>
  <g
     inkscape:label="Image"
     inkscape:groupmode="layer"
     id="layer1"
     style="display:none"
     transform="translate(0,-802.36216)">
    <image
       sodipodi:absref="C:\Users\aseab_000\Documents\GitHub\GitHub-Game-Off\Inkscape\source images\2010-brown-bear.jpg"
       xlink:href="source images\2010-brown-bear.jpg"
       y="273.43365"
       x="215.50002"
       id="image4144"
       preserveAspectRatio="none"
       height="375"
       width="249" />
  </g>
  <g
     inkscape:groupmode="layer"
     id="layer3"
     inkscape:label="Bear BodyBack"
     style="display:inline"
     transform="translate(0,-802.36216)">
    <path
       style="fill:#573900;fill-opacity:1;fill-rule:evenodd;stroke:none;stroke-width:1px;stroke-linecap:butt;stroke-linejoin:miter;stroke-opacity:1"
       d="m 155.38566,1048.8637 c 10.13586,-32.2609 -10.52006,-50.24114 -9.31336,-82.96665 -1.67049,-20.12088 -4.53986,-37.04599 9.77429,-53.32387 8.68362,-13.81857 9.72175,-17.17218 9.43376,-25.86412 2.50206,-11.36158 22.96959,-15.62618 31.31622,-28.87781 l 42.80528,100.34681 -39.99837,22.45524 1.93491,63.1833 z"
       id="path4153"
       inkscape:connector-curvature="0"
       sodipodi:nodetypes="ccccccccc" />
  </g>
  <g
     inkscape:groupmode="layer"
     id="layer4"
     inkscape:label="Bear BodyFront"
     transform="translate(0,-802.36216)">
    <path
       style="fill:#69491f;fill-opacity:1;fill-rule:evenodd;stroke:none;stroke-width:1px;stroke-linecap:butt;stroke-linejoin:miter;stroke-opacity:1"
       d="m 186.08587,1041.4827 c -6.63074,-13.699 -13.77862,-27.2155 -12.70071,-43.63512 0.60182,-11.30686 -1.3116,-25.12896 3.96956,-31.75649 4.06539,-18.92608 2.76299,-31.56011 0.72666,-45.3292 -2.03633,-13.76909 1.66673,-42.61046 7.15227,-52.01019 7.13584,-3.12566 9.27922,-7.9545 12.40488,-12.87098 l 86.39816,18.41426 c 0.84676,17.94329 11.39481,22.8529 16.22395,43.83028 -0.827,12.90108 -2.53837,22.21576 0.15049,44.49246 2.13646,14.81394 2.00365,27.68279 0.87716,39.69988 -4.64903,19.5802 -10.72162,27.7718 -16.20417,40.6838 l -36.77348,0 -1.98478,-31.7566 3.96955,-14.88583 c 1.53891,-7.78389 -0.93665,-17.44201 -6.94673,-13.89344 -6.01008,3.54857 -5.12487,7.13358 -9.1121,8.96161 1.21268,-4.66811 -2.74889,-6.70276 -6.26994,-8.96161 -6.4627,3.41169 -7.99781,13.54277 -9.42771,23.81737 0.87196,10.4852 1.97558,28.4577 8.93151,36.7185 z"
       id="path4173"
       inkscape:connector-curvature="0"
       sodipodi:nodetypes="ccczcccccccccczccccc" />
  </g>
  <g
     inkscape:groupmode="layer"
     id="layer5"
     inkscape:label="Bear Head"
     transform="translate(0,-802.36216)">
    <path
       style="fill:#7b5735;fill-opacity:1;fill-rule:evenodd;stroke:none;stroke-width:1px;stroke-linecap:butt;stroke-linejoin:miter;stroke-opacity:1"
       d="m 201.66828,849.98142 -3.96955,6.20244 c -7.15171,6.48319 -7.13976,23.38624 -7.19483,40.19181 0.53117,17.80125 10.548,27.11536 23.56927,33.74127 9.67694,-1.24844 20.77385,-6.67787 24.80976,8.68342 3.07126,1.68165 3.90441,6.04906 5.45814,9.55175 10.70784,-5.36869 9.94132,-19.56502 26.79454,-18.23517 11.05958,4.56857 16.18335,-0.2612 19.35162,-8.18722 3.09407,-13.36307 19.57969,-13.33459 9.17961,-40.19181 -3.63874,-9.45634 -4.30303,-18.42653 -11.90868,-28.53123 -1.20913,-3.14257 -2.14219,-6.28513 -0.7443,-9.4277 2.97709,-12.01852 0.28058,-23.03864 -10.4201,-22.32879 -2.90147,0.57396 -4.85727,-0.97982 -8.93151,2.23288 -2.15107,3.22259 -4.38573,3.96153 -8.18722,2.23288 -2.7648,-1.99228 -8.97757,-0.79315 -13.64537,-0.2481 -2.37122,0.86682 -5.03061,0.86912 -8.06317,-0.2481 -4.41214,-0.19675 -7.80623,-2.00401 -11.04035,0.74429 -1.57128,1.01391 -2.19273,1.72756 -5.50329,-1.69411 -3.31055,-3.42167 -11.50478,-5.32884 -17.07359,1.19792 -1.57496,2.68405 -2.60047,5.91755 -2.85312,9.9239 l 1.61263,5.5822 c 1.11104,3.95218 -0.5454,6.05937 -1.24049,8.80747 z"
       id="path4175"
       inkscape:connector-curvature="0"
       sodipodi:nodetypes="ccccccccccccccccczcccc" />
  </g>
  <g
     inkscape:groupmode="layer"
     id="layer7"
     inkscape:label="Bear Nose"
     transform="translate(0,-802.36216)">
    <path
       style="fill:#9f9474;fill-opacity:1;fill-rule:evenodd;stroke:none;stroke-width:1px;stroke-linecap:butt;stroke-linejoin:miter;stroke-opacity:1"
       d="m 233.08632,850.81399 c -1.78306,1.26829 -5.60381,17.22643 -5.61381,18.24488 -2.01947,9.01709 1.74963,12.82209 5.78924,14.91167 5.01461,-1.26752 9.54015,-1.11388 13.68366,0 8.13916,-2.87421 7.25838,-8.9176 7.01726,-14.73624 -0.50339,-5.79858 0.26432,-12.65641 -2.8069,-16.31513 -3.11338,-3.27227 -5.69516,-7.74063 -9.64873,-9.12244 -3.7736,1.21128 -5.99384,4.23481 -8.42072,7.01726 z"
       id="path4187"
       inkscape:connector-curvature="0"
       sodipodi:nodetypes="cccccccc" />
  </g>
  <g
     inkscape:groupmode="layer"
     id="layer6"
     inkscape:label="Bear Facial Features"
     transform="translate(0,-802.36216)">
    <path
       style="fill:#573900;fill-opacity:1;fill-rule:evenodd;stroke:none;stroke-width:1px;stroke-linecap:butt;stroke-linejoin:miter;stroke-opacity:1"
       d="m 218.0552,830.57219 c -2.14344,1.47675 -5.69504,2.50744 -8.94141,7.88881 0,0 -2.04534,1.95871 -2.39713,-3.319 -0.35178,-5.27771 4.42211,-7.58709 7.03316,-7.67856 2.61105,-0.0915 6.44881,1.63199 4.30538,3.10875 z"
       id="path4177"
       inkscape:connector-curvature="0"
       sodipodi:nodetypes="zczzz" />
    <path
       style="fill:#573900;fill-opacity:1;fill-rule:evenodd;stroke:none;stroke-width:1px;stroke-linecap:butt;stroke-linejoin:miter;stroke-opacity:1"
       d="m 269.64703,831.6222 c 1.96591,0.99746 6.71821,5.01323 10.19694,9.58421 3.47872,4.57097 2.31986,-5.75345 1.68423,-8.46541 -0.63564,-2.71197 -2.13369,-5.7077 -5.60477,-5.71614 -3.47109,-0.008 -8.24231,3.59987 -6.2764,4.59734 z"
       id="path4179"
       inkscape:connector-curvature="0"
       sodipodi:nodetypes="zzzzz" />
    <path
       style="fill:#000000;fill-opacity:1;fill-rule:evenodd;stroke:none;stroke-width:1px;stroke-linecap:butt;stroke-linejoin:miter;stroke-opacity:1"
       d="m 251.74143,851.55771 c 1.53017,2.46118 4.84136,1.64629 6.07087,1.1545 1.22951,-0.4918 0.77533,-2.80834 0.20296,-3.52712 -0.57238,-0.71878 -3.80868,-2.14803 -5.03334,-1.37765 -1.22464,0.77039 -2.77065,1.2891 -1.24049,3.75027 z"
       id="path4181"
       inkscape:connector-curvature="0"
       sodipodi:nodetypes="zzzzz" />
    <path
       style="fill:#000000;fill-opacity:1;fill-rule:evenodd;stroke:none;stroke-width:1px;stroke-linecap:butt;stroke-linejoin:miter;stroke-opacity:1"
       d="m 231.61102,851.15061 c -0.33526,1.02669 -1.64779,2.00872 -3.40747,2.6374 -1.75967,0.6287 -3.21142,-0.6733 -3.49099,-2.2247 -0.27958,-1.55141 1.74665,-5.19793 4.58098,-4.31785 2.83435,0.88008 2.65275,2.87845 2.31748,3.90515 z"
       id="path4183"
       inkscape:connector-curvature="0"
       sodipodi:nodetypes="zzzzz" />
    <path
       style="fill:#000000;fill-opacity:1;fill-rule:evenodd;stroke:none;stroke-width:1px;stroke-linecap:butt;stroke-linejoin:miter;stroke-opacity:1"
       d="m 234.27048,880.15491 c 2.49883,-0.0379 3.59635,-0.307 4.91209,0.21929 1.31573,0.5263 2.72063,0.091 3.94721,-0.17543 1.22657,-0.26646 3.20937,-0.078 5.08751,-0.0438 1.87814,0.0341 -3.15368,-2.2884 -4.60508,-3.02619 -1.4514,-0.7378 -0.79261,-2.22361 -0.87715,-3.42092 0.10122,-2.87322 3.47991,-1.39231 4.91208,-2.19289 2.65603,-4.49887 1.10051,-7.15518 0.17542,-10.08731 -1.5648,-2.65926 -4.10598,-2.76374 -6.66639,-2.89462 l -2.71919,0.17543 c -2.17325,0.11937 -3.56985,0.29686 -5.52609,3.24548 -1.84343,2.34765 -1.2634,6.43455 0.0877,8.77158 1.35111,2.33702 2.92385,2.26286 4.38579,2.01746 1.08683,-0.0685 1.45105,2.05235 1.18415,3.15777 -0.26689,1.10542 -6.7969,4.29204 -4.29807,4.25421 z"
       id="path4185"
       inkscape:connector-curvature="0"
       sodipodi:nodetypes="zzzzzcccccczczz" />
  </g>
  <g
     inkscape:groupmode="layer"
     id="layer2"
     inkscape:label="Grass Fore"
     transform="translate(0,-802.36216)">
    <g
       transform="translate(-247.93292,157.25941)"
       style="display:inline"
       id="logo-grouped"
       inkscape:label="logo"
       class="logo">
      <path
         transform="translate(0,652.36216)"
         id="path4892"
         d="m 374.90844,93.261701 3.5,-2.17 -10.01,-15.96 c 0.98,-0.49 1.82,-1.19 2.59,-1.89 3.64,-3.57 3.71,-8.26 3.57,-10.08 -0.63,-8.61 -10.5,-14.35 -19.81,-12.67 l 0.7,4.06 1.4,-0.14 0,35.63 4.27,0 0,-13.09 c 1.12,0 2.24,-0.14 3.29,-0.35 l 10.5,16.66 z m -13.79,-20.51 0,-18.13 c 4.76,1.05 8.89,4.48 9.31,8.82 0.35,5.67 -3.29,9.1 -9.31,9.31 z m -11.98969,20.51 4.06,-0.91 -4.9,-20.02 c 1.19,-0.21 2.45,-0.56 3.36,-1.05 l -1.96,-3.64 c -0.91,0.35 -1.89,0.77 -2.31,0.77 l -4.62,-18.83 -3.99,-0.07 -5.53,19.95 c -0.63,0 -1.68,0 -2.24,-0.07 l -0.21,3.15 c 0.56,0.07 1.33,0.14 1.61,0.14 l -4.06,14.91 3.99,1.05 4.34,-15.68 c 2.24,0 6.23,0 7.49,-0.14 l 4.97,20.44 z m -11.55,-23.8 3.08,-11.06 2.59,10.71 c 0.07,0 -3.85,0.35 -5.67,0.35 z m -25.40672,20.58 13.58,0 0,-3.85 -9.45,0 0,-10.64 7.56,0 0,-3.92 -7.56,0 0,-17.57 9.45,0 0,-3.92 -13.58,0 0,39.9 z m -16.19188,0.14 c 5.04,0 9.31,-1.61 11.06,-5.67 1.4,-3.29 0.63,-7.77 -2.03,-10.85 0.21,-0.07 0.35,-0.21 0.56,-0.42 3.64,-3.57 3.71,-8.26 3.57,-10.08 -0.63,-8.61 -10.5,-14.35 -19.88,-12.67 l 0.77,4.06 1.33,-0.14 0,31.22 -1.4,-0.28 -0.7,4.13 c 2.52,0.49 4.69,0.7 6.72,0.7 z m -0.28,-17.43 0,-18.13 c 4.76,1.05 9.03,4.55 9.31,8.82 0.28,5.67 -3.29,9.1 -9.31,9.31 z m 0,13.3 0,-9.1 c 2.03,-0.07 3.01,-0.28 5.53,-0.98 2.03,1.19 2.94,4.9 2.03,6.79 -1.26,2.8 -4.55,3.29 -7.56,3.29 z m 112.46135,-33.455602 4.13,0 0,-17.01 9.17,-21.91 -3.78,-1.61 -7.42,17.71 -7.42,-17.71 -3.78,1.61 9.1,21.91 0,17.01 z m -25.26672,0.07 13.58,0 0,-3.85 -9.45,0 0,-10.64 7.56,0 0,-3.92 -7.56,0 0,-17.57 9.45,0 0,-3.92 -13.58,0 0,39.9 z m -5.5125,3.15 3.5,-2.24 -12.46,-19.39 12.18,-19.18 -3.57,-2.24 -14.07,22.33 0,-22.33 -4.13,0 0,39.9 4.13,0 0,-9.8 3.08,-4.69 11.34,17.64 z m -34.56797,-3.36 c 5.53,0 10.36,-3.01 11.41,-8.61 0.63,-3.36 0,-6.02 -1.89,-8.26 -3.29,-3.85 -11.62,-5.39 -11.69,-10.71 -0.21,-5.53 8.33,-9.45 14.84,-8.19 l 0.77,-4.13 c -9.03,-1.68 -20.02,3.99 -19.81,12.39 0,2.59 0.98,4.76 2.87,6.58 2.66,2.59 7.77,4.34 9.8,6.72 1.4,1.61 1.33,3.43 1.05,4.83 -0.84,4.69 -6.72,6.51 -10.92,4.55 l -1.75,3.78 c 1.61,0.77 3.43,1.05 5.32,1.05 z m -13.10313,-3.71 4.13,0 0,-35.98 -4.13,0 0,35.98 z m -21.05468,3.92 4.13,0 0,-18.41 8.61,0 0,14.49 4.2,0 0,-35.98 -4.2,0 0,17.99 -8.61,0 0,-15.96 -4.13,0 0,37.87 z m -15.25016,-1.61 3.99,-0.07 10.43,-42.7000004 -4.06,-1.05 -8.54,35.0700004 -8.33,-29.54 -3.99,0 -7.49,29.54 -8.4,-30.73 -3.99,1.12 10.5,38.29 3.99,0 7.49,-29.61 8.4,29.68 z"
         inkscape:connector-curvature="0"
         style="font-style:normal;font-variant:normal;font-weight:normal;font-stretch:normal;font-size:medium;line-height:125%;font-family:'Sweet &amp; Salty';-inkscape-font-specification:'Sweet &amp; Salty, Normal';text-align:start;letter-spacing:0px;word-spacing:0px;writing-mode:lr-tb;text-anchor:start;display:inline;fill:#000000;fill-opacity:1;stroke:#868877;stroke-width:6;stroke-linecap:butt;stroke-linejoin:miter;stroke-miterlimit:4;stroke-dasharray:none;stroke-opacity:1" />
      <path
         id="path4868"
         d="m 374.90844,745.62389 3.5,-2.17 -10.01,-15.96 c 0.98,-0.49 1.82,-1.19 2.59,-1.89 3.64,-3.57 3.71,-8.26 3.57,-10.08 -0.63,-8.61 -10.5,-14.35 -19.81,-12.67 l 0.7,4.06 1.4,-0.14 0,35.63 4.27,0 0,-13.09 c 1.12,0 2.24,-0.14 3.29,-0.35 l 10.5,16.66 z m -13.79,-20.51 0,-18.13 c 4.76,1.05 8.89,4.48 9.31,8.82 0.35,5.67 -3.29,9.1 -9.31,9.31 z m -11.98969,20.51 4.06,-0.91 -4.9,-20.02 c 1.19,-0.21 2.45,-0.56 3.36,-1.05 l -1.96,-3.64 c -0.91,0.35 -1.89,0.77 -2.31,0.77 l -4.62,-18.83 -3.99,-0.07 -5.53,19.95 c -0.63,0 -1.68,0 -2.24,-0.07 l -0.21,3.15 c 0.56,0.07 1.33,0.14 1.61,0.14 l -4.06,14.91 3.99,1.05 4.34,-15.68 c 2.24,0 6.23,0 7.49,-0.14 l 4.97,20.44 z m -11.55,-23.8 3.08,-11.06 2.59,10.71 c 0.07,0 -3.85,0.35 -5.67,0.35 z m -25.40672,20.58 13.58,0 0,-3.85 -9.45,0 0,-10.64 7.56,0 0,-3.92 -7.56,0 0,-17.57 9.45,0 0,-3.92 -13.58,0 0,39.9 z m -16.19188,0.14 c 5.04,0 9.31,-1.61 11.06,-5.67 1.4,-3.29 0.63,-7.77 -2.03,-10.85 0.21,-0.07 0.35,-0.21 0.56,-0.42 3.64,-3.57 3.71,-8.26 3.57,-10.08 -0.63,-8.61 -10.5,-14.35 -19.88,-12.67 l 0.77,4.06 1.33,-0.14 0,31.22 -1.4,-0.28 -0.7,4.13 c 2.52,0.49 4.69,0.7 6.72,0.7 z m -0.28,-17.43 0,-18.13 c 4.76,1.05 9.03,4.55 9.31,8.82 0.28,5.67 -3.29,9.1 -9.31,9.31 z m 0,13.3 0,-9.1 c 2.03,-0.07 3.01,-0.28 5.53,-0.98 2.03,1.19 2.94,4.9 2.03,6.79 -1.26,2.8 -4.55,3.29 -7.56,3.29 z m 112.46135,-33.45561 4.13,0 0,-17.01 9.17,-21.91 -3.78,-1.61 -7.42,17.71 -7.42,-17.71 -3.78,1.61 9.1,21.91 0,17.01 z m -25.26672,0.07 13.58,0 0,-3.85 -9.45,0 0,-10.64 7.56,0 0,-3.92 -7.56,0 0,-17.57 9.45,0 0,-3.92 -13.58,0 0,39.9 z m -5.5125,3.15 3.5,-2.24 -12.46,-19.39 12.18,-19.18 -3.57,-2.24 -14.07,22.33 0,-22.33 -4.13,0 0,39.9 4.13,0 0,-9.8 3.08,-4.69 11.34,17.64 z m -34.56797,-3.36 c 5.53,0 10.36,-3.01 11.41,-8.61 0.63,-3.36 0,-6.02 -1.89,-8.26 -3.29,-3.85 -11.62,-5.39 -11.69,-10.71 -0.21,-5.53 8.33,-9.45 14.84,-8.19 l 0.77,-4.13 c -9.03,-1.68 -20.02,3.99 -19.81,12.39 0,2.59 0.98,4.76 2.87,6.58 2.66,2.59 7.77,4.34 9.8,6.72 1.4,1.61 1.33,3.43 1.05,4.83 -0.84,4.69 -6.72,6.51 -10.92,4.55 l -1.75,3.78 c 1.61,0.77 3.43,1.05 5.32,1.05 z m -13.10313,-3.71 4.13,0 0,-35.98 -4.13,0 0,35.98 z m -21.05468,3.92 4.13,0 0,-18.41 8.61,0 0,14.49 4.2,0 0,-35.98 -4.2,0 0,17.99 -8.61,0 0,-15.96 -4.13,0 0,37.87 z m -15.25016,-1.61 3.99,-0.07 10.43,-42.7 -4.06,-1.05 -8.54,35.07 -8.33,-29.54 -3.99,0 -7.49,29.54 -8.4,-30.73 -3.99,1.12 10.5,38.29 3.99,0 7.49,-29.61 8.4,29.68 z"
         inkscape:connector-curvature="0"
         style="font-style:normal;font-variant:normal;font-weight:normal;font-stretch:normal;font-size:medium;line-height:125%;font-family:'Sweet &amp; Salty';-inkscape-font-specification:'Sweet &amp; Salty, Normal';text-align:start;letter-spacing:0px;word-spacing:0px;writing-mode:lr-tb;text-anchor:start;fill:#000000;fill-opacity:1;stroke:none;stroke-width:1px;stroke-linecap:butt;stroke-linejoin:miter;stroke-opacity:1" />
    </g>
    <path
       inkscape:connector-curvature="0"
       style="color:#000000;clip-rule:nonzero;display:inline;overflow:visible;visibility:visible;opacity:1;isolation:auto;mix-blend-mode:normal;color-interpolation:sRGB;color-interpolation-filters:linearRGB;solid-color:#000000;solid-opacity:1;fill:#009000;fill-opacity:1;fill-rule:evenodd;stroke:none;stroke-width:1px;stroke-linecap:butt;stroke-linejoin:miter;stroke-miterlimit:4;stroke-dasharray:none;stroke-dashoffset:0;stroke-opacity:1;color-rendering:auto;image-rendering:auto;shape-rendering:auto;text-rendering:auto;enable-background:accumulate"
       d="m 70.1875,1009.0575 c -4.52559,0.053 -9.162559,0.2732 -13.896484,0.6914 C 25.922641,1012.4316 7.6851692,1023.3491 0,1034.784 l 0,17.5782 315,0 0,-25.8789 c -0.73415,-0.2128 -1.6143,-0.4755 -2.23633,-0.6563 -11.52148,-3.3485 -70.97913,-6.9068 -85.54687,-1.8262 -14.52507,5.5565 -57.94949,9.4846 -69.61914,3.8536 -10.30333,-4.1434 -43.66279,-19.3096 -87.41016,-18.7969 z"
       id="rect4725" />
  </g>
</svg>
